<svg width="24" height="24" viewBox="0 0 24 24" fill="none" xmlns="http://www.w3.org/2000/svg">
<path d="M10.2353 4.58065C13.1176 4.58065 15.4941 6.85161 16.0118 9.84516L14.2471 7.92258L12.5882 9.74194L17.3059 14.9032L22 9.74194L20.3412 7.92258L18.4824 9.96129H18.4118C17.9294 5.48387 14.4471 2 10.2353 2C5.68235 2 2 6.03871 2 11.0323V14.9032H4.35294V11.0323C4.35294 7.47097 6.98823 4.58065 10.2353 4.58065Z" fill="white"/>
<path d="M10.8235 22C9.84891 22 9.05882 21.2099 9.05882 20.2353V17.3131C9.05882 16.3385 9.84891 15.5484 10.8235 15.5484C11.7981 15.5484 12.5882 16.3385 12.5882 17.3131V20.2353C12.5882 21.2099 11.7981 22 10.8235 22Z" fill="white"/>
</svg>
