<?xml version="1.0" encoding="UTF-8"?>
<svg version="1.1" xmlns="http://www.w3.org/2000/svg" width="670" height="372">
<path d="M0 0 C0.95708359 0.00222061 1.91416718 0.00444122 2.9002533 0.00672913 C3.98129837 0.00680466 5.06234344 0.00688019 6.17614746 0.00695801 C7.94018166 0.01469994 7.94018166 0.01469994 9.73985291 0.02259827 C10.93702438 0.02401321 12.13419586 0.02542816 13.36764526 0.02688599 C17.20918732 0.03250472 21.05067208 0.04506041 24.89219666 0.05775452 C27.48920102 0.0627671 30.0862063 0.06733043 32.68321228 0.07142639 C39.06539344 0.08248024 45.44754096 0.0992366 51.82969666 0.12025452 C52.11973572 1.08962952 52.40977478 2.05900452 52.70860291 3.05775452 C54.03900207 6.69201565 54.56645987 6.5380791 57.82969666 8.12025452 C58.87777706 10.09548297 59.88173776 12.0950696 60.82969666 14.12025452 C61.81969666 14.61525452 61.81969666 14.61525452 62.82969666 15.12025452 C66.63898147 21.2381968 66.63898147 21.2381968 67.32969666 24.43275452 C67.49469666 24.98962952 67.65969666 25.54650452 67.82969666 26.12025452 C68.44844666 26.40900452 69.06719666 26.69775452 69.70469666 26.99525452 C72.78098173 28.62387603 73.34832242 31.03405819 74.82969666 34.12025452 C75.55157166 34.84212952 76.27344666 35.56400452 77.01719666 36.30775452 C77.61532166 36.90587952 78.21344666 37.50400452 78.82969666 38.12025452 C78.82969666 39.11025452 78.82969666 40.10025452 78.82969666 41.12025452 C79.48969666 41.12025452 80.14969666 41.12025452 80.82969666 41.12025452 C82.52110291 43.20228577 82.52110291 43.20228577 84.39219666 45.93275452 C85.01223572 46.82607483 85.63227478 47.71939514 86.27110291 48.63978577 C87.82969666 51.12025452 87.82969666 51.12025452 88.82969666 54.12025452 C89.44844666 54.73900452 90.06719666 55.35775452 90.70469666 55.99525452 C92.91447021 58.20502807 94.29374142 60.41404768 95.82969666 63.12025452 C96.15969666 63.45025452 96.48969666 63.78025452 96.82969666 64.12025452 C97.15969666 43.00025452 97.48969666 21.88025452 97.82969666 0.12025452 C111.16375916 0.08931702 111.16375916 0.08931702 124.76719666 0.05775452 C127.57727234 0.04865051 130.38734802 0.03954651 133.28257751 0.03016663 C135.49489799 0.02724769 137.707219 0.02469908 139.91954041 0.02259827 C141.08038147 0.0174823 142.24122253 0.01236633 143.4372406 0.00709534 C144.53346741 0.00697449 145.62969421 0.00685364 146.75914001 0.00672913 C147.7162236 0.00450851 148.67330719 0.0022879 149.65939331 0 C151.82969666 0.12025452 151.82969666 0.12025452 152.82969666 1.12025452 C152.92599263 2.86651975 152.95157204 4.61671356 152.94995117 6.3656311 C152.95201317 8.0715593 152.95201317 8.0715593 152.95411682 9.81195068 C152.95052155 11.07070511 152.94692627 12.32945953 152.94322205 13.62635803 C152.94336807 14.94323608 152.9435141 16.26011414 152.94366455 17.61689758 C152.94395252 21.2386372 152.93805589 24.86034397 152.93109059 28.48207593 C152.92485695 32.26307336 152.92425325 36.04407147 152.92306519 39.82507324 C152.9199519 46.98969742 152.91173855 54.15430641 152.9017157 61.31892389 C152.89055448 69.47356613 152.88504409 77.62820909 152.88002026 85.78285706 C152.86955593 102.56199985 152.85121049 119.34112171 152.82969666 136.12025452 C134.67969666 136.12025452 116.52969666 136.12025452 97.82969666 136.12025452 C97.49969666 134.80025452 97.16969666 133.48025452 96.82969666 132.12025452 C96.21094666 131.83150452 95.59219666 131.54275452 94.95469666 131.24525452 C91.87841158 129.61663301 91.31107089 127.20645084 89.82969666 124.12025452 C88.51703148 122.76656855 87.18402341 121.43225856 85.82969666 120.12025452 C84.81618002 118.46177274 83.8184887 116.79359491 82.82969666 115.12025452 C81.29061745 113.05464821 79.72130568 111.01649093 78.13438416 108.98744202 C76.82969666 107.12025452 76.82969666 107.12025452 75.82969666 104.12025452 C75.21094666 103.50150452 74.59219666 102.88275452 73.95469666 102.24525452 C70.92030094 99.2108588 69.1820509 96.17731725 67.82969666 92.12025452 C67.16969666 92.12025452 66.50969666 92.12025452 65.82969666 92.12025452 C65.25219666 91.06837952 64.67469666 90.01650452 64.07969666 88.93275452 C62.25894346 85.73517734 60.15769564 82.97393069 57.82969666 80.12025452 C56.09116825 77.41587699 54.84821408 75.17580678 53.82969666 72.12025452 C53.16969666 72.12025452 52.50969666 72.12025452 51.82969666 72.12025452 C51.82969666 93.24025452 51.82969666 114.36025452 51.82969666 136.12025452 C33.67969666 136.12025452 15.52969666 136.12025452 -3.17030334 136.12025452 C-3.19284986 118.53571035 -3.21128222 100.95117847 -3.22211552 83.36662388 C-3.2272786 75.20238288 -3.23432154 67.03815147 -3.2457428 58.87391663 C-3.25568925 51.76054167 -3.26215668 44.64717367 -3.26439184 37.53379196 C-3.26569901 33.76499728 -3.26878528 29.99622248 -3.2760334 26.22743416 C-3.2840465 22.02706636 -3.28429451 17.82673344 -3.28382874 13.62635803 C-3.28742401 12.36760361 -3.29101929 11.10884918 -3.29472351 9.81195068 C-3.29334885 8.67466522 -3.29197418 7.53737976 -3.29055786 6.3656311 C-3.29147965 5.37101647 -3.29240145 4.37640184 -3.29335117 3.35164738 C-3.12925163 0.37580824 -2.97439715 0.16480862 0 0 Z " fill="#05345F" transform="translate(331.17030334472656,116.87974548339844)"/>
<path d="M0 0 C7.28347752 6.10401622 12.96126935 13.13245224 16.33984375 22.0234375 C16.99984375 23.0134375 17.65984375 24.0034375 18.33984375 25.0234375 C20.02601017 30.78138357 20.88169536 36.43736505 21.46484375 42.3984375 C21.54831055 43.24277344 21.63177734 44.08710938 21.71777344 44.95703125 C23.26092779 61.25778013 23.64554679 81.86258505 14.33984375 96.0234375 C14.06785156 96.78011719 13.79585937 97.53679687 13.515625 98.31640625 C9.41417307 107.75928394 0.80842816 115.7196004 -8.4375 119.98828125 C-10.69273138 121.00625618 -10.69273138 121.00625618 -12.9140625 122.27734375 C-21.30820103 126.67802671 -30.14914911 127.62112339 -39.43554688 128.74023438 C-41.28338767 128.97547311 -43.12227255 129.27982756 -44.95703125 129.6015625 C-55.4268823 130.79433034 -65.90551419 129.83572149 -76.34765625 128.7734375 C-77.58837891 128.66386719 -78.82910156 128.55429687 -80.10742188 128.44140625 C-87.60347677 127.68743567 -93.84836483 126.2222467 -100.66015625 123.0234375 C-102.24230568 122.35396601 -103.82549903 121.68695116 -105.41015625 121.0234375 C-111.96670568 118.03273074 -116.44729639 114.43470183 -121.046875 108.92578125 C-122.60233101 107.0099202 -122.60233101 107.0099202 -124.3671875 105.46484375 C-125.66015625 104.0234375 -125.66015625 104.0234375 -125.66015625 101.0234375 C-126.27632812 100.80429688 -126.8925 100.58515625 -127.52734375 100.359375 C-130.42208458 98.54618569 -130.75905587 96.86470173 -131.78515625 93.6484375 C-133.03963778 89.73488296 -133.03963778 89.73488296 -134.70703125 85.9921875 C-141.59005079 71.77480288 -139.52427819 45.92177431 -135.66015625 31.0234375 C-134.77668354 28.80027256 -133.80425379 26.77306372 -132.609375 24.703125 C-131.23519101 22.27144141 -130.48310867 19.68220687 -129.66015625 17.0234375 C-129.33015625 16.3634375 -129.00015625 15.7034375 -128.66015625 15.0234375 C-128.00015625 15.0234375 -127.34015625 15.0234375 -126.66015625 15.0234375 C-126.28890625 13.693125 -126.28890625 13.693125 -125.91015625 12.3359375 C-124.58658727 8.82847971 -123.26610265 6.70383951 -120.66015625 4.0234375 C-119.004324 3.33029842 -117.33904646 2.65869326 -115.66015625 2.0234375 C-115.33015625 1.0334375 -115.00015625 0.0434375 -114.66015625 -0.9765625 C-112.47265625 -2.44140625 -112.47265625 -2.44140625 -109.66015625 -3.9140625 C-108.75265625 -4.39746094 -107.84515625 -4.88085938 -106.91015625 -5.37890625 C-75.70706373 -20.71792649 -28.65885577 -21.29424526 0 0 Z M-73.66015625 27.0234375 C-82.47809089 40.12871278 -81.13666964 60.35955827 -78.41015625 75.2734375 C-76.43638047 84.58684549 -76.43638047 84.58684549 -70.53125 91.609375 C-64.72411783 94.89917445 -59.2714413 96.20980186 -52.66015625 95.0234375 C-48.36965311 93.52285406 -44.58600025 91.57560896 -41.66015625 88.0234375 C-41.66015625 87.0334375 -41.66015625 86.0434375 -41.66015625 85.0234375 C-41.00015625 85.0234375 -40.34015625 85.0234375 -39.66015625 85.0234375 C-34.07831768 67.85430013 -32.6250252 48.02500421 -39.66015625 31.0234375 C-42.41476848 26.50110167 -45.20577399 22.15261192 -50.4765625 20.4296875 C-53.04950698 19.95100015 -55.48048432 19.8540871 -58.09765625 19.8359375 C-59.02449219 19.82175781 -59.95132813 19.80757812 -60.90625 19.79296875 C-66.70341435 20.27812151 -69.94700898 22.6438279 -73.66015625 27.0234375 Z " fill="#05345E" transform="translate(294.66015625,127.9765625)"/>
<path d="M0 0 C14.746875 -0.061875 29.49375 -0.12375 44.6875 -0.1875 C49.31998779 -0.21481201 53.95247559 -0.24212402 58.7253418 -0.27026367 C64.44299316 -0.28381348 64.44299316 -0.28381348 67.13142395 -0.28633118 C68.98337475 -0.29089612 70.83531742 -0.30135914 72.68721008 -0.31672668 C83.58418018 -0.40252326 93.49710908 -0.19910736 104 3 C105.10554733 3.32092117 106.21109467 3.64184235 107.35014343 3.9724884 C118.36177306 7.25797425 125.36017876 12.95434552 131.6875 22.5625 C132.120625 23.366875 132.55375 24.17125 133 25 C133.33902344 25.55558594 133.67804688 26.11117187 134.02734375 26.68359375 C137.97602834 33.21789388 139.17203323 39.72123616 137.50390625 47.234375 C134.23772545 57.93711435 127.7135527 65.22279235 119 72 C118.34 72 117.68 72 117 72 C117 72.66 117 73.32 117 74 C114.03 75.65 111.06 77.3 108 79 C108.99 80.27875 109.98 81.5575 111 82.875 C114 86.75 114 86.75 114 89 C115.485 89.495 115.485 89.495 117 90 C118.1875 93.0625 118.1875 93.0625 119 96 C119.99 96 120.98 96 122 96 C125 100.22222222 125 100.22222222 125 103 C125.66 103 126.32 103 127 103 C127 103.99 127 104.98 127 106 C127.89332031 106.37511719 127.89332031 106.37511719 128.8046875 106.7578125 C131.3035965 108.17178592 132.45418472 109.55685314 134.125 111.875 C134.62257812 112.55304688 135.12015625 113.23109375 135.6328125 113.9296875 C137 116 137 116 138.02734375 118.1015625 C139.47436523 120.92586949 141.74108918 122.79618457 144 125 C147 128.62068966 147 128.62068966 147 131 C147.99 131.33 148.98 131.66 150 132 C150.6875 134.0625 150.6875 134.0625 151 136 C142.77662638 136.20902731 134.55437161 136.3686854 126.3289938 136.46630955 C122.50898002 136.513179 118.69079011 136.5766806 114.87182617 136.67895508 C111.18230005 136.77713865 107.49452125 136.83063466 103.80378914 136.85389519 C102.39979606 136.87045751 100.99589314 136.90280514 99.59264946 136.95157051 C88.63397583 137.31707086 88.63397583 137.31707086 84.5708313 134.04196167 C81.99615977 130.82118478 80.3035932 127.9107796 79 124 C78.01537117 122.98486155 77.01340463 121.98641323 76 121 C75.03039787 119.64744577 74.09499181 118.26998741 73.1875 116.875 C72.67058594 116.08609375 72.15367188 115.2971875 71.62109375 114.484375 C70.81865234 113.25460938 70.81865234 113.25460938 70 112 C68.91843746 110.37382086 67.83516949 108.7487744 66.75 107.125 C62 100 62 100 62 97 C61.34 97 60.68 97 60 97 C58.68 95.02 57.36 93.04 56 91 C55.67 105.85 55.34 120.7 55 136 C36.85 136 18.7 136 0 136 C0 91.12 0 46.24 0 0 Z M55 32 C55 42.89 55 53.78 55 65 C64.00523896 61.10882793 64.00523896 61.10882793 71 56 C71.845625 55.67 72.69125 55.34 73.5625 55 C76.61198785 53.74892806 78.03635678 52.66494437 80 50 C81.0743411 46.28651662 81.21093528 43.03123916 80.4375 39.25 C77.92786942 35.32188258 74.3411149 33.4470383 70 32 C65.05 32 60.1 32 55 32 Z " fill="#02325D" transform="translate(13,117)"/>
<path d="M0 0 C19.8 0 39.6 0 60 0 C61.32 3.3 62.64 6.6 64 10 C64.9769567 11.68027777 65.97136801 13.35085052 67 15 C67.68084111 16.68942754 68.31565483 18.39804199 68.90625 20.12109375 C70.92552028 25.84779802 73.17701114 31.45323508 75.5 37.0625 C76.26080668 38.90739129 77.02122566 40.75244252 77.78125 42.59765625 C78.15121094 43.49500488 78.52117187 44.39235352 78.90234375 45.31689453 C79.98124804 47.95416281 81.04051265 50.59848331 82.09375 53.24609375 C83.66729253 57.19358225 85.30829969 61.10173407 87 65 C89.07063356 69.80553051 91.0733973 74.62751568 93 79.4921875 C96.54269029 88.46047244 96.54269029 88.46047244 100.625 97.1875 C102.1360291 100.27824134 103.13777772 103.37898997 104.1875 106.6484375 C105.25691324 109.74356619 106.59353835 112.68184679 107.94921875 115.66015625 C109.09620676 118.21422993 110.18624491 120.78515104 111.25 123.375 C111.58515625 124.18710938 111.9203125 124.99921875 112.265625 125.8359375 C113 128 113 128 113 131 C113.66 131 114.32 131 115 131 C115.38218767 132.65614657 115.71395102 134.32457024 116 136 C115 137 115 137 111.40234375 137.09765625 C109.91403133 137.0909822 108.42573568 137.07902183 106.9375 137.0625 C106.17888672 137.05798828 105.42027344 137.05347656 104.63867188 137.04882812 C102.75908129 137.0370068 100.87953101 137.01907078 99 137 C96.55073074 133.06367441 94.6664493 129.30222834 93.13671875 124.921875 C91.10544542 119.23156599 88.87044968 113.64540357 86.5625 108.0625 C86.16853027 107.10609619 85.77456055 106.14969238 85.36865234 105.16430664 C84.594187 103.2852629 83.81883415 101.40658464 83.04248047 99.52832031 C82.15814818 97.38355563 81.28137262 95.23605113 80.41015625 93.0859375 C79.98605469 92.04695313 79.56195312 91.00796875 79.125 89.9375 C78.60292969 88.65166016 78.60292969 88.65166016 78.0703125 87.33984375 C77.01458533 84.91383075 77.01458533 84.91383075 75.453125 82.44140625 C74.15227906 80.2558452 73.3521203 78.41743891 72.625 76 C69.59894572 66.54554024 65.90188555 57.61023622 61.34765625 48.79296875 C59.78687959 45.55831568 58.69291983 42.31117214 57.6484375 38.8828125 C57.00990019 36.81041296 57.00990019 36.81041296 55.4375 34.4375 C53.45450404 31.07502859 52.83877888 27.80676569 52 24 C49.66898694 31.18729027 53.36812638 37.70718631 56.53515625 44.09765625 C57.58600071 46.13996084 58.63806291 48.18163936 59.69140625 50.22265625 C60.80381456 52.58361836 61.52714904 54.59100547 62.0625 57.125 C63.07920506 61.32738093 64.71747534 64.61586921 66.70703125 68.42578125 C68.36434336 71.72538451 69.69339967 75.11060967 71.02734375 78.55078125 C71.99405782 80.98503715 73.04248263 83.36526616 74.125 85.75 C75.64293004 89.11533328 76.83213518 92.49640555 78 96 C79.28546164 99.02166958 80.64597971 102.00855981 82 105 C83.90715366 109.34831035 85.66976976 113.7183097 87.3203125 118.16796875 C88.4546867 121.22556357 89.64838626 124.23568133 91.01171875 127.19921875 C91.37910156 127.99972656 91.74648438 128.80023438 92.125 129.625 C92.65480469 130.75808594 92.65480469 130.75808594 93.1953125 131.9140625 C94 134 94 134 94 137 C88.06 137 82.12 137 76 137 C75.4225 135.185 74.845 133.37 74.25 131.5 C72.811145 127.17333777 71.20775801 123.21324044 69.0703125 119.19921875 C67.1730125 115.30075197 65.74674247 111.21248943 64.24609375 107.1484375 C63.03426425 103.95290806 63.03426425 103.95290806 61.40625 100.81640625 C60 98 60 98 59.0625 94.5625 C58.09397398 91.31508924 56.80495496 88.87656744 55.06640625 85.99609375 C53.3547202 82.79216858 52.26356802 79.38731798 51.06640625 75.96484375 C48.13468326 67.81400951 44.56643225 59.88998419 41 52 C39.84828217 55.4551535 40.19695127 56.47840164 41.25 59.875 C41.50265625 60.71804687 41.7553125 61.56109375 42.015625 62.4296875 C42.92635871 65.03766176 42.92635871 65.03766176 44.43359375 67.359375 C46.33071505 70.55751465 47.56255245 73.89049039 48.8125 77.375 C49.33468424 78.79603408 49.85815551 80.21659577 50.3828125 81.63671875 C50.64868164 82.35778809 50.91455078 83.07885742 51.18847656 83.82177734 C52.48169313 87.29292001 53.82452211 90.74323551 55.1875 94.1875 C55.65542969 95.37730469 56.12335938 96.56710938 56.60546875 97.79296875 C57.8755687 100.71384286 59.36160418 103.27836728 61 106 C61.82091329 108.21950631 62.48529996 110.45029987 63.15625 112.71875 C64.13789578 115.37282933 65.5442407 117.57619771 67 120 C67.75592798 121.81422714 68.46461901 123.64885328 69.125 125.5 C69.62386719 126.87671875 69.62386719 126.87671875 70.1328125 128.28125 C71 131 71 131 72 136 C66.06 136 60.12 136 54 136 C51.79187716 130.52058407 49.63608646 125.03175123 47.5625 119.5 C45.67510209 114.54849315 43.48730253 109.89095039 41.05078125 105.19140625 C39.63145598 102.23140076 38.88619084 99.15705487 38 96 C37.18776063 94.17794953 36.35228232 92.36616725 35.5 90.5625 C33.39340819 86.06346617 32.00801149 81.85678265 31 77 C28.81070147 77.80265581 28.81070147 77.80265581 28.32421875 79.96875 C28.00904297 81.22171875 28.00904297 81.22171875 27.6875 82.5 C26.39657645 87.11044125 24.54027131 90.87266312 22.125 94.984375 C20.68851684 97.55807399 19.87787305 100.19080625 19 103 C18.43151429 104.31899887 17.84617453 105.63078276 17.25 106.9375 C15.37656167 111.08432418 13.63508479 115.27870764 11.9375 119.5 C11.45152344 120.7065625 10.96554687 121.913125 10.46484375 123.15625 C8.8507373 127.39166533 7.43332071 131.70003786 6 136 C-14.46 136 -34.92 136 -56 136 C-48.33333333 113 -48.33333333 113 -43 105 C-42.31731223 102.9519367 -41.63816327 100.90262834 -40.9765625 98.84765625 C-36.99047512 87.22422546 -32.07343679 75.74435468 -27 64.5625 C-24.90200953 59.89468185 -23.10811549 55.12183276 -21.2890625 50.33984375 C-18.73092304 43.71193697 -15.99045318 37.16045434 -13.0625 30.6875 C-10.9319235 25.96732036 -9.05165728 21.14783276 -7.19360352 16.31518555 C-6.10917462 13.54435166 -4.98263182 10.97127068 -3.44140625 8.421875 C-1.60944045 5.5398164 -1.60944045 5.5398164 0 0 Z " fill="#06355F" transform="translate(541,117)"/>
<path d="M0 0 C2.27533632 2.82335073 3.77261529 5.49087858 5.12109375 8.8515625 C5.49943359 9.78613281 5.87777344 10.72070312 6.26757812 11.68359375 C6.65365234 12.65425781 7.03972656 13.62492188 7.4375 14.625 C7.81970703 15.57246094 8.20191406 16.51992187 8.59570312 17.49609375 C10.09785726 21.22470045 11.58616858 24.95872241 13.07080078 28.69433594 C14.9818063 33.49411299 16.94336693 38.26080207 19 43 C21.07063356 47.80553051 23.0733973 52.62751568 25 57.4921875 C28.54269029 66.46047244 28.54269029 66.46047244 32.625 75.1875 C34.1360291 78.27824134 35.13777772 81.37898997 36.1875 84.6484375 C37.25691324 87.74356619 38.59353835 90.68184679 39.94921875 93.66015625 C41.09620676 96.21422993 42.18624491 98.78515104 43.25 101.375 C43.58515625 102.18710938 43.9203125 102.99921875 44.265625 103.8359375 C45 106 45 106 45 109 C45.66 109 46.32 109 47 109 C47.38218767 110.65614657 47.71395102 112.32457024 48 114 C47 115 47 115 43.40234375 115.09765625 C41.91403133 115.0909822 40.42573568 115.07902183 38.9375 115.0625 C38.17888672 115.05798828 37.42027344 115.05347656 36.63867188 115.04882812 C34.75908129 115.0370068 32.87953101 115.01907078 31 115 C28.55073074 111.06367441 26.6664493 107.30222834 25.13671875 102.921875 C23.10544542 97.23156599 20.87044968 91.64540357 18.5625 86.0625 C18.16853027 85.10609619 17.77456055 84.14969238 17.36865234 83.16430664 C16.594187 81.2852629 15.81883415 79.40658464 15.04248047 77.52832031 C14.15814818 75.38355563 13.28137262 73.23605113 12.41015625 71.0859375 C11.77400391 69.52746094 11.77400391 69.52746094 11.125 67.9375 C10.77695312 67.08027344 10.42890625 66.22304687 10.0703125 65.33984375 C9.01458533 62.91383075 9.01458533 62.91383075 7.453125 60.44140625 C6.15227906 58.2558452 5.3521203 56.41743891 4.625 54 C1.73963133 44.96819493 -1.62738556 36.25349528 -6.1796875 27.92578125 C-6.45039062 27.29027344 -6.72109375 26.65476563 -7 26 C-6.67 25.34 -6.34 24.68 -6 24 C-4.515 24.99 -4.515 24.99 -3 26 C-2.7525 25.401875 -2.505 24.80375 -2.25 24.1875 C-1 22 -1 22 1.0625 20.625 C3.25549929 19.07681581 3.25549929 19.07681581 3.9375 16.125 C4.01271124 12.36443783 3.07510437 11.07422869 1 8 C-0.25 4.8125 -0.25 4.8125 -1 2 C-0.67 1.34 -0.34 0.68 0 0 Z " fill="#0F3A62" transform="translate(609,139)"/>
<path d="M0 0 C0.2475 0.515625 0.495 1.03125 0.75 1.5625 C1.73341597 3.48016115 2.81809902 5.34590485 3.9375 7.1875 C5.88504847 10.55798057 7.0580046 13.94889329 8.20703125 17.65625 C9.30656155 20.90609326 10.75096381 23.96268842 12.23046875 27.0546875 C13 29 13 29 13 32 C7.06 32 1.12 32 -5 32 C-5.86625 29.2775 -5.86625 29.2775 -6.75 26.5 C-8.02507961 22.62905939 -9.38609255 19.02853827 -11.3125 15.4375 C-13 12 -13 12 -12 9 C-12 9.66 -12 10.32 -12 11 C-10.68 11 -9.36 11 -8 11 C-8.061875 10.236875 -8.12375 9.47375 -8.1875 8.6875 C-8 6 -8 6 -6.75 4.125 C-5 3 -5 3 -2.8125 3.3125 C-2.214375 3.539375 -1.61625 3.76625 -1 4 C-0.67 2.68 -0.34 1.36 0 0 Z M-2 7 C-1 10 -1 10 -1 10 Z " fill="#224A6F" transform="translate(622,222)"/>
<path d="M0 0 C30.03 0 60.06 0 91 0 C91 0.33 91 0.66 91 1 C61.3 1 31.6 1 1 1 C1 44.89 1 88.78 1 134 C2.32 134 3.64 134 5 134 C5.495 133.01 5.495 133.01 6 132 C6 132.66 6 133.32 6 134 C6.75394043 133.99476318 7.50788086 133.98952637 8.28466797 133.98413086 C22.89352901 133.89628644 37.42612612 133.92045379 52 135 C53.06261091 124.59553979 53.31614799 114.19733611 53.5625 103.75 C53.60580223 102.02212743 53.64941975 100.29426273 53.69335938 98.56640625 C53.79920327 94.37768593 53.90079634 90.18888263 54 86 C55.77090362 89.04995921 56.23172056 91.16537162 56.13525391 94.67675781 C56.11470947 95.6102002 56.09416504 96.54364258 56.07299805 97.50537109 C56.02526245 98.96450928 56.02526245 98.96450928 55.9765625 100.453125 C55.95489014 101.35337402 55.93321777 102.25362305 55.91088867 103.18115234 C55.82701635 106.5377398 55.72492075 109.89385194 55.625 113.25 C55.41875 120.7575 55.2125 128.265 55 136 C36.85 136 18.7 136 0 136 C0 91.12 0 46.24 0 0 Z " fill="#6F859E" transform="translate(13,117)"/>
<path d="M0 0 C17.82 0 35.64 0 54 0 C54 44.55 54 89.1 54 135 C36.18 134.505 36.18 134.505 18 134 C18 133.67 18 133.34 18 133 C28.89 133 39.78 133 51 133 C51.33 89.44 51.66 45.88 52 1 C23.45910689 -3.46486211 23.45910689 -3.46486211 0 4 C0 2.68 0 1.36 0 0 Z " fill="#4A6483" transform="translate(430,118)"/>
<path d="M0 0 C2.7053871 4.05808065 5 8.04889399 5 13 C5.66 13 6.32 13 7 13 C7.38218767 14.65614657 7.71395102 16.32457024 8 18 C7 19 7 19 3.40234375 19.09765625 C1.91403133 19.0909822 0.42573568 19.07902183 -1.0625 19.0625 C-1.82111328 19.05798828 -2.57972656 19.05347656 -3.36132812 19.04882812 C-5.24091871 19.0370068 -7.12046899 19.01907078 -9 19 C-11.96395102 14.31504516 -13.89033463 10.70259912 -14 5 C-12.4219701 2.36995016 -11.28160312 2.07203801 -8.3125 1.3125 C-7.549375 1.209375 -6.78625 1.10625 -6 1 C-6 1.66 -6 2.32 -6 3 C-4.35 2.67 -2.7 2.34 -1 2 C-0.67 2.66 -0.34 3.32 0 4 C0 2.68 0 1.36 0 0 Z " fill="#113D64" transform="translate(649,235)"/>
<path d="M0 0 C0.66 0.33 1.32 0.66 2 1 C2 1.66 2 2.32 2 3 C2.66 3.33 3.32 3.66 4 4 C3.34 4 2.68 4 2 4 C2 4.99 2 5.98 2 7 C8.94814957 7.79830677 15.82961955 8.19114517 22.8203125 8.31640625 C24.29732132 8.3475779 24.29732132 8.3475779 25.8041687 8.37937927 C28.91105012 8.44411047 32.0180069 8.50339959 35.125 8.5625 C37.24740324 8.60575814 39.3697992 8.64937459 41.4921875 8.69335938 C46.66138359 8.799712 51.83065449 8.90118829 57 9 C56.690625 8.236875 56.38125 7.47375 56.0625 6.6875 C55.32106407 4.81210323 54.63771783 2.91315348 54 1 C56.4375 1.8125 56.4375 1.8125 59 3 C59.495 4.485 59.495 4.485 60 6 C60.99 6.33 61.98 6.66 63 7 C63.6875 9.0625 63.6875 9.0625 64 11 C55.75935516 11.2088764 47.51982218 11.36860936 39.27718163 11.46630955 C35.4492966 11.51321163 31.62322681 11.57677372 27.79638672 11.67895508 C24.10038177 11.7770211 20.40611767 11.83061017 16.7089119 11.85389519 C15.30130218 11.87047844 13.89378405 11.90286737 12.4869194 11.95157051 C1.42868079 12.31902986 1.42868079 12.31902986 -2.23504639 8.93649292 C-3.75700377 6.67483289 -4.96156745 4.51631169 -6 2 C-2.25 0.875 -2.25 0.875 0 2 C0 1.34 0 0.68 0 0 Z " fill="#345772" transform="translate(100,242)"/>
<path d="M0 0 C7.625 1.875 7.625 1.875 11 3 C11.33 3.66 11.66 4.32 12 5 C12.99 3.68 13.98 2.36 15 1 C17.90802461 3.21928194 19.95312762 4.92969143 22 8 C22 9.32 22 10.64 22 12 C16.06 12 10.12 12 4 12 C0 2.25 0 2.25 0 0 Z " fill="#113B60" transform="translate(591,241)"/>
<path d="M0 0 C7.92 0 15.84 0 24 0 C24 0.33 24 0.66 24 1 C23.40461426 1.02505615 22.80922852 1.0501123 22.19580078 1.07592773 C19.50530864 1.19177494 16.8151766 1.31455196 14.125 1.4375 C13.18785156 1.47681641 12.25070312 1.51613281 11.28515625 1.55664062 C9.94130859 1.61948242 9.94130859 1.61948242 8.5703125 1.68359375 C7.32918701 1.73858032 7.32918701 1.73858032 6.06298828 1.79467773 C3.93820571 1.88238327 3.93820571 1.88238327 2 3 C2 46.23 2 89.46 2 134 C1.34 134 0.68 134 0 134 C0 89.78 0 45.56 0 0 Z " fill="#0F304A" transform="translate(329,118)"/>
<path d="M0 0 C19.8 0 39.6 0 60 0 C60.66 1.98 61.32 3.96 62 6 C61.67 6.66 61.34 7.32 61 8 C59 5 59 5 59 3 C40.19 3 21.38 3 2 3 C1.34 4.32 0.68 5.64 0 7 C-0.66 6.67 -1.32 6.34 -2 6 C-1.34 4.02 -0.68 2.04 0 0 Z " fill="#91A0BB" transform="translate(541,117)"/>
<path d="M0 0 C3.97674419 3.85623679 3.97674419 3.85623679 4.04296875 7.11328125 C3.7798228 9.08863015 3.39718314 11.04718291 3 13 C2.21625 13.268125 1.4325 13.53625 0.625 13.8125 C-2.28114923 14.84814432 -2.28114923 14.84814432 -4 18 C-5.32 17.34 -6.64 16.68 -8 16 C-7.67 13.36 -7.34 10.72 -7 8 C-5.02 7.67 -3.04 7.34 -1 7 C-0.67 4.69 -0.34 2.38 0 0 Z " fill="#02305B" transform="translate(610,147)"/>
<path d="M0 0 C2.3143062 4.02795278 1.8134922 6.4444437 1 11 C1 12.32 1 13.64 1 15 C0.01 15.495 0.01 15.495 -1 16 C2.3 16.66 5.6 17.32 9 18 C9 18.33 9 18.66 9 19 C3.72 19 -1.56 19 -7 19 C-5.5493369 14.64801071 -4.0314535 10.3969064 -2.375 6.125 C-1.92898438 4.97257813 -1.48296875 3.82015625 -1.0234375 2.6328125 C-0.68570312 1.76398438 -0.34796875 0.89515625 0 0 Z " fill="#42607B" transform="translate(492,234)"/>
<path d="M0 0 C3.47901564 2.68833027 4.10668406 5.80828675 5 10 C5.60589021 17.51303863 4.23706199 23.86811321 -0.1875 30.0625 C-0.785625 30.701875 -1.38375 31.34125 -2 32 C-2.33 31.01 -2.66 30.02 -3 29 C-2.52949219 28.5978125 -2.05898437 28.195625 -1.57421875 27.78125 C3.37319434 22.18318456 2.23906887 11.98612373 2 5 C1.34 5 0.68 5 0 5 C0 3.35 0 1.7 0 0 Z " fill="#5E7A90" transform="translate(146,144)"/>
<path d="M0 0 C1.98 0 3.96 0 6 0 C5.67 0.99 5.34 1.98 5 3 C5.99 3.33 6.98 3.66 8 4 C8.66 4.33 9.32 4.66 10 5 C10 6.32 10 7.64 10 9 C11.1446875 9.1546875 11.1446875 9.1546875 12.3125 9.3125 C15.17059424 10.04364039 16.15742885 10.76951913 18 13 C16.20703125 13.62109375 16.20703125 13.62109375 14 14 C8.27924527 10.65389818 4.02904908 6.24143771 0 1 C0 0.67 0 0.34 0 0 Z " fill="#3F5E7C" transform="translate(172,234)"/>
<path d="M0 0 C0.66 0 1.32 0 2 0 C4.15305957 3.85756507 5.39253254 6.55129785 5 11 C3.35 11.33 1.7 11.66 0 12 C-2 9 -2 9 -1.6875 7.125 C-1.460625 6.42375 -1.23375 5.7225 -1 5 C-0.65939189 3.33480481 -0.32441604 1.66842534 0 0 Z " fill="#033059" transform="translate(624,233)"/>
<path d="M0 0 C0 0.99 0 1.98 0 3 C-0.99 3.33 -1.98 3.66 -3 4 C-4.21869929 6.50447516 -4.21869929 6.50447516 -5 9 C-6.32 8.34 -7.64 7.68 -9 7 C-9.33 7.99 -9.66 8.98 -10 10 C-13.80269732 11.6900877 -16.05272168 12.19873962 -20 11 C-19.16855469 10.60167969 -18.33710937 10.20335937 -17.48046875 9.79296875 C-16.39378906 9.26316406 -15.30710937 8.73335937 -14.1875 8.1875 C-13.10855469 7.66542969 -12.02960938 7.14335937 -10.91796875 6.60546875 C-8.39323584 5.21635868 -6.92262166 4.06330129 -5 2 C-2.3125 0.8125 -2.3125 0.8125 0 0 Z " fill="#456480" transform="translate(89,170)"/>
<path d="M0 0 C0.99 0 1.98 0 3 0 C3 0.66 3 1.32 3 2 C12.57 2 22.14 2 32 2 C32 2.33 32 2.66 32 3 C27.26797113 3.16837379 22.53576294 3.32884843 17.80322266 3.48217773 C16.19507741 3.53537297 14.58700062 3.59068298 12.97900391 3.64819336 C10.66063186 3.73073602 8.34211583 3.80553709 6.0234375 3.87890625 C5.31069672 3.90594131 4.59795593 3.93297638 3.86361694 3.96083069 C-0.22545203 4.08163157 -3.99092989 3.81442806 -8 3 C-8 2.67 -8 2.34 -8 2 C-6.865625 1.855625 -5.73125 1.71125 -4.5625 1.5625 C-1.19222799 1.38828522 -1.19222799 1.38828522 0 0 Z " fill="#072F51" transform="translate(503,249)"/>
<path d="M0 0 C9.9 0 19.8 0 30 0 C30.66 1.65 31.32 3.3 32 5 C34.01735205 6.34410262 34.01735205 6.34410262 36 7 C35.67 7.66 35.34 8.32 35 9 C33.82512964 8.24172908 32.66027408 7.46792245 31.5 6.6875 C30.8503125 6.25824219 30.200625 5.82898438 29.53125 5.38671875 C29.0259375 4.92910156 28.520625 4.47148438 28 4 C28 3.01 28 2.02 28 1 C18.76 1 9.52 1 0 1 C0 0.67 0 0.34 0 0 Z " fill="#234663" transform="translate(353,118)"/>
<path d="M0 0 C0.66 0.33 1.32 0.66 2 1 C2 1.66 2 2.32 2 3 C2.66 3.33 3.32 3.66 4 4 C3.34 4 2.68 4 2 4 C1.67 6.31 1.34 8.62 1 11 C-1.96404505 8.19195732 -4.44499019 5.81684226 -6 2 C-2.25 0.875 -2.25 0.875 0 2 C0 1.34 0 0.68 0 0 Z " fill="#285070" transform="translate(100,242)"/>
<path d="M0 0 C0.66 0.33 1.32 0.66 2 1 C1.34 2.32 0.68 3.64 0 5 C0.66 5 1.32 5 2 5 C2.33 5.99 2.66 6.98 3 8 C1.625 9.5 1.625 9.5 0 11 C-0.66 11 -1.32 11 -2 11 C-2 11.66 -2 12.32 -2 13 C-2.66 13 -3.32 13 -4 13 C-4 13.99 -4 14.98 -4 16 C-4.66 16 -5.32 16 -6 16 C-4.43551329 10.3856009 -2.83604813 5.13189662 0 0 Z " fill="#184268" transform="translate(508,197)"/>
<path d="M0 0 C0.66 0 1.32 0 2 0 C2 11.22 2 22.44 2 34 C1.01 33.67 0.02 33.34 -1 33 C-0.67 32.34 -0.34 31.68 0 31 C0.09720918 29.00317661 0.1307655 27.00309335 0.1328125 25.00390625 C0.13410156 23.80572266 0.13539062 22.60753906 0.13671875 21.37304688 C0.13285156 20.11556641 0.12898438 18.85808594 0.125 17.5625 C0.12886719 16.30888672 0.13273437 15.05527344 0.13671875 13.76367188 C0.13542969 12.56419922 0.13414063 11.36472656 0.1328125 10.12890625 C0.13168457 9.02619385 0.13055664 7.92348145 0.12939453 6.78735352 C0.12262441 3.91471461 0.12262441 3.91471461 -1 1 C-0.67 0.67 -0.34 0.34 0 0 Z " fill="#0F314E" transform="translate(65,148)"/>
<path d="M0 0 C4.85714286 4.25 4.85714286 4.25 5.5 7.625 C4.92725125 10.34555656 4.15153737 11.29669958 2 13 C-1.22265625 7.82421875 -1.22265625 7.82421875 -2 6 C-1.67 5.01 -1.34 4.02 -1 3 C-0.34 3.33 0.32 3.66 1 4 C0.67 2.68 0.34 1.36 0 0 Z " fill="#1C476E" transform="translate(578,201)"/>
<path d="M0 0 C0.99 0.33 1.98 0.66 3 1 C1.75 3.9375 1.75 3.9375 0 7 C-2.1875 7.875 -2.1875 7.875 -4 8 C-4.33 9.65 -4.66 11.3 -5 13 C-5.99 13 -6.98 13 -8 13 C-8 12.34 -8 11.68 -8 11 C-7.34 11 -6.68 11 -6 11 C-5.7525 10.113125 -5.505 9.22625 -5.25 8.3125 C-3.96065232 4.89572865 -2.40019871 2.7202252 0 0 Z " fill="#4C6885" transform="translate(174,132)"/>
<path d="M0 0 C9.24 0 18.48 0 28 0 C28 0.33 28 0.66 28 1 C15.625 1.495 15.625 1.495 3 2 C2.34 3.32 1.68 4.64 1 6 C0.34 5.67 -0.32 5.34 -1 5 C-0.67 3.35 -0.34 1.7 0 0 Z " fill="#173858" transform="translate(540,118)"/>
<path d="M0 0 C2.3143062 4.02795278 1.8134922 6.4444437 1 11 C1 12.32 1 13.64 1 15 C0.01 15 -0.98 15 -2 15 C-4 11 -4 11 -3.22265625 8.3984375 C-2.83980469 7.40070313 -2.45695312 6.40296875 -2.0625 5.375 C-1.68222656 4.37210938 -1.30195313 3.36921875 -0.91015625 2.3359375 C-0.60980469 1.56507813 -0.30945313 0.79421875 0 0 Z " fill="#38597C" transform="translate(492,234)"/>
<path d="M0 0 C1.73662334 3.22515763 2.8905928 6.51329166 4 10 C3.01 9.01 2.02 8.02 1 7 C0.67 8.98 0.34 10.96 0 13 C-0.66 12.34 -1.32 11.68 -2 11 C-1.625 7.875 -1.625 7.875 -1 5 C-1.66 5 -2.32 5 -3 5 C-3 3.68 -3 2.36 -3 1 C-2.01 0.67 -1.02 0.34 0 0 Z " fill="#5B7B9A" transform="translate(581,162)"/>
<path d="M0 0 C0.66 0 1.32 0 2 0 C2.38218767 1.65614657 2.71395102 3.32457024 3 5 C2 6 2 6 -1.59765625 6.09765625 C-3.08596867 6.0909822 -4.57426432 6.07902183 -6.0625 6.0625 C-6.82111328 6.05798828 -7.57972656 6.05347656 -8.36132812 6.04882812 C-10.24091871 6.0370068 -12.12046899 6.01907078 -14 6 C-14 5.67 -14 5.34 -14 5 C-8.94997778 3.96409801 -4.12583611 3.89748328 1 4 C0.67 2.68 0.34 1.36 0 0 Z " fill="#859BAF" transform="translate(654,248)"/>
<path d="M0 0 C0.66 0 1.32 0 2 0 C2 0.99 2 1.98 2 3 C2.639375 3.268125 3.27875 3.53625 3.9375 3.8125 C6 5 6 5 7 8 C7.66 8 8.32 8 9 8 C9 9.65 9 11.3 9 13 C4.99139058 9.32544136 2.50976168 5.83361508 0 1 C0 0.67 0 0.34 0 0 Z " fill="#4E6A86" transform="translate(407,220)"/>
<path d="M0 0 C-0.53625 0.226875 -1.0725 0.45375 -1.625 0.6875 C-4.78500863 2.43382056 -7.2676983 4.6402849 -10 7 C-10.33 5.02 -10.66 3.04 -11 1 C-6.87831311 -0.62950412 -4.29299643 -1.26264601 0 0 Z " fill="#40617C" transform="translate(231,148)"/>
<path d="M0 0 C1.98 0.66 3.96 1.32 6 2 C5.96744792 4.05078125 5.93489583 6.1015625 5.90234375 8.15234375 C5.79438816 10.01732141 5.79438816 10.01732141 7 11 C7.04063832 12.66617115 7.042721 14.33388095 7 16 C6.72414063 15.44570312 6.44828125 14.89140625 6.1640625 14.3203125 C5.35458166 12.70678358 4.53620153 11.09770115 3.7109375 9.4921875 C3.27007813 8.62851563 2.82921875 7.76484375 2.375 6.875 C1.70597656 5.57175781 1.70597656 5.57175781 1.0234375 4.2421875 C0 2 0 2 0 0 Z " fill="#526D8D" transform="translate(602,163)"/>
<path d="M0 0 C0.66 0.33 1.32 0.66 2 1 C2 1.66 2 2.32 2 3 C2.99 3.33 3.98 3.66 5 4 C5.33 5.32 5.66 6.64 6 8 C2.37 8 -1.26 8 -5 8 C-5 7.67 -5 7.34 -5 7 C-3.02 7 -1.04 7 1 7 C0.67 4.69 0.34 2.38 0 0 Z " fill="#5D738D" transform="translate(158,245)"/>
<path d="M0 0 C3 1 3 1 4.5625 3.875 C5.036875 4.90625 5.51125 5.9375 6 7 C6.99 8.485 6.99 8.485 8 10 C6.35 10 4.7 10 3 10 C2.731875 9.071875 2.46375 8.14375 2.1875 7.1875 C1.08851629 4.23759634 0.37581439 2.94384814 -2 1 C-1.34 0.67 -0.68 0.34 0 0 Z " fill="#436383" transform="translate(420,172)"/>
<path d="M0 0 C1.3125 2.0625 1.3125 2.0625 2 4 C1.071875 3.690625 0.14375 3.38125 -0.8125 3.0625 C-5.77871546 1.6216844 -10.86205306 1.35305964 -16 1 C-16 0.67 -16 0.34 -16 0 C-14.27185839 -0.19672365 -12.54240803 -0.38196799 -10.8125 -0.5625 C-9.84957031 -0.66691406 -8.88664063 -0.77132812 -7.89453125 -0.87890625 C-5.02199908 -0.99907966 -2.7534776 -0.81440887 0 0 Z " fill="#5D7791" transform="translate(247,147)"/>
<path d="M0 0 C4.83290538 4.049191 6.3833652 7.96719209 8 14 C5 13 5 13 3.4375 10.9375 C1.66840723 7.32239738 0.86554308 3.92823399 0 0 Z " fill="#5D7793" transform="translate(303,138)"/>
<path d="M0 0 C0.66 0 1.32 0 2 0 C1.95875 1.010625 1.9175 2.02125 1.875 3.0625 C2.00573843 7.18076052 2.73250786 10.11830533 4 14 C2.68 13.34 1.36 12.68 0 12 C0 11.34 0 10.68 0 10 C-0.66 9.67 -1.32 9.34 -2 9 C-1.67 8.67 -1.34 8.34 -1 8 C-1 7.030625 -1 6.06125 -1 5.0625 C-1 2 -1 2 0 0 Z " fill="#486886" transform="translate(590,140)"/>
<path d="M0 0 C1.31471568 0.28151087 2.62675767 0.57553339 3.9375 0.875 C4.66839844 1.03742188 5.39929688 1.19984375 6.15234375 1.3671875 C8 2 8 2 9 4 C8.34 4 7.68 4 7 4 C6.67 4.66 6.34 5.32 6 6 C5.01 5.01 4.02 4.02 3 3 C3 3.66 3 4.32 3 5 C3.66 5 4.32 5 5 5 C4.67 5.99 4.34 6.98 4 8 C1.81715496 5.34262343 0.72366315 3.34430737 0 0 Z " fill="#2C5275" transform="translate(591,241)"/>
<path d="M0 0 C0.99 0 1.98 0 3 0 C3.33 2.64 3.66 5.28 4 8 C4.99 8.33 5.98 8.66 7 9 C6.34 10.32 5.68 11.64 5 13 C4.16453285 11.02173314 3.33168055 9.04236176 2.5 7.0625 C2.0359375 5.96035156 1.571875 4.85820312 1.09375 3.72265625 C0 1 0 1 0 0 Z " fill="#446284" transform="translate(609,179)"/>
<path d="M0 0 C3.42931954 3.7559214 4.56429083 8.23466745 6 13 C5.34 13 4.68 13 4 13 C1.56918823 9.55635 0.08435603 6.0663351 -1 2 C-0.67 1.34 -0.34 0.68 0 0 Z " fill="#4B6C85" transform="translate(609,139)"/>
<path d="M0 0 C4.23429756 1.31061591 8.07407404 2.94356259 12 5 C11.38125 5.144375 10.7625 5.28875 10.125 5.4375 C7.96741678 5.93152225 7.96741678 5.93152225 6 7 C5.01 6.34 4.02 5.68 3 5 C3 4.01 3 3.02 3 2 C1.68 1.67 0.36 1.34 -1 1 C-0.67 0.67 -0.34 0.34 0 0 Z " fill="#4D6D8C" transform="translate(275,118)"/>
<path d="M0 0 C2.31 0.33 4.62 0.66 7 1 C4.64531545 3.72647685 2.4591583 4.98756342 -1 6 C-3.3125 5.625 -3.3125 5.625 -5 5 C-4.01 5 -3.02 5 -2 5 C-2 4.34 -2 3.68 -2 3 C-1.34 3 -0.68 3 0 3 C0 2.01 0 1.02 0 0 Z " fill="#547592" transform="translate(274,248)"/>
<path d="M0 0 C2.31 0 4.62 0 7 0 C7 1.32 7 2.64 7 4 C5.02 4 3.04 4 1 4 C0.67 2.68 0.34 1.36 0 0 Z " fill="#012F56" transform="translate(537,248)"/>
<path d="M0 0 C0.66 0.99 1.32 1.98 2 3 C0.02 3.33 -1.96 3.66 -4 4 C-4.33 5.32 -4.66 6.64 -5 8 C-6.32 7.67 -7.64 7.34 -9 7 C-8.01 6.67 -7.02 6.34 -6 6 C-5.67 5.01 -5.34 4.02 -5 3 C-2.4375 1.3125 -2.4375 1.3125 0 0 Z " fill="#55718A" transform="translate(185,124)"/>
<path d="M0 0 C1.5 1.375 1.5 1.375 3 3 C3 3.66 3 4.32 3 5 C3.66 5 4.32 5 5 5 C5 5.99 5 6.98 5 8 C5.99 8.33 6.98 8.66 8 9 C7.01 9.495 7.01 9.495 6 10 C3.4375 9 3.4375 9 1 7 C0.1875 3.3125 0.1875 3.3125 0 0 Z " fill="#5C7B93" transform="translate(135,215)"/>
<path d="M0 0 C0.33 0.66 0.66 1.32 1 2 C1.66 2 2.32 2 3 2 C3.36256858 3.4562672 3.71479793 4.91511185 4.0625 6.375 C4.35833984 7.59316406 4.35833984 7.59316406 4.66015625 8.8359375 C5 11 5 11 4 13 C3.32404685 11.58774074 2.65959941 10.16997095 2 8.75 C1.62875 7.96109375 1.2575 7.1721875 0.875 6.359375 C0 4 0 4 0 0 Z " fill="#4D6983" transform="translate(585,172)"/>
<path d="M0 0 C0.66 0 1.32 0 2 0 C1.34 2.97 0.68 5.94 0 9 C-0.99 9 -1.98 9 -3 9 C-2.67 6.69 -2.34 4.38 -2 2 C-1.34 2 -0.68 2 0 2 C0 1.34 0 0.68 0 0 Z " fill="#45627E" transform="translate(547,244)"/>
<path d="M0 0 C3.68754757 0.49831724 5.60490662 1.10067643 8 4 C6.25 4.6875 6.25 4.6875 4 5 C1.75 3.6875 1.75 3.6875 0 2 C0 1.34 0 0.68 0 0 Z " fill="#5C7388" transform="translate(182,243)"/>
<path d="M0 0 C0.66 0.99 1.32 1.98 2 3 C0.02 5.31 -1.96 7.62 -4 10 C-4.33 8.68 -4.66 7.36 -5 6 C-4.01 5.34 -3.02 4.68 -2 4 C-0.80767387 1.94996045 -0.80767387 1.94996045 0 0 Z " fill="#4B6783" transform="translate(305,226)"/>
<path d="M0 0 C2 1 2 1 2.88671875 2.9609375 C3.15097656 3.75757813 3.41523437 4.55421875 3.6875 5.375 C3.95949219 6.16648438 4.23148438 6.95796875 4.51171875 7.7734375 C5 10 5 10 4 13 C3.34 12.67 2.68 12.34 2 12 C1.3671875 9.27734375 1.3671875 9.27734375 0.875 5.9375 C0.70742188 4.83277344 0.53984375 3.72804687 0.3671875 2.58984375 C0.24601563 1.73519531 0.12484375 0.88054687 0 0 Z " fill="#6A8399" transform="translate(640,213)"/>
<path d="M0 0 C2.50298434 2.93828597 3.46930939 5.17902761 4 9 C2.68 8.67 1.36 8.34 0 8 C0 5.36 0 2.72 0 0 Z " fill="#4A6985" transform="translate(604,179)"/>
<path d="M0 0 C2.0625 0.75 2.0625 0.75 4 2 C4.33 2.99 4.66 3.98 5 5 C3.68 5.33 2.36 5.66 1 6 C0.01 4.35 -0.98 2.7 -2 1 C-1.34 0.67 -0.68 0.34 0 0 Z " fill="#254D6E" transform="translate(137,132)"/>
<path d="M0 0 C0.66 0.33 1.32 0.66 2 1 C0.79157144 5.43090471 -0.51668565 7.98112756 -4 11 C-3.5247412 9.35303396 -3.04468109 7.70745272 -2.5625 6.0625 C-2.29566406 5.14597656 -2.02882813 4.22945312 -1.75390625 3.28515625 C-1 1 -1 1 0 0 Z " fill="#4C6B84" transform="translate(508,197)"/>
<path d="M0 0 C2.375 0.1875 2.375 0.1875 5 1 C6.3125 3.5625 6.3125 3.5625 7 6 C6.01 6 5.02 6 4 6 C3.34 4.68 2.68 3.36 2 2 C1.34 2 0.68 2 0 2 C0 1.34 0 0.68 0 0 Z " fill="#406682" transform="translate(383,187)"/>
<path d="M0 0 C0.66 0 1.32 0 2 0 C3.60355101 3.50776784 4.22036864 6.14354879 4 10 C0.06153846 5.69230769 0.06153846 5.69230769 -0.25 2.1875 C-0.1675 1.465625 -0.085 0.74375 0 0 Z " fill="#5A758C" transform="translate(595,144)"/>
<path d="M0 0 C2.49349318 1.24674659 3.46640071 2.69960106 5 5 C5 5.66 5 6.32 5 7 C2.5625 6.25 2.5625 6.25 0 5 C-0.875 2.9375 -0.875 2.9375 -1 1 C-0.67 0.67 -0.34 0.34 0 0 Z " fill="#456781" transform="translate(119,195)"/>
<path d="M0 0 C2.40072955 2.88087546 4.47291037 5.56404834 6 9 C3.525 8.01 3.525 8.01 1 7 C0.67 4.69 0.34 2.38 0 0 Z " fill="#617A92" transform="translate(411,158)"/>
<path d="M0 0 C0.66 0.33 1.32 0.66 2 1 C1.34 3.97 0.68 6.94 0 10 C-0.33 10 -0.66 10 -1 10 C-1.66 7.03 -2.32 4.06 -3 1 C-2.01 0.67 -1.02 0.34 0 0 Z " fill="#3B5C7D" transform="translate(602,153)"/>
<path d="M0 0 C1.231394 2.46278801 1.07159196 4.2795055 1 7 C0.01 7.33 -0.98 7.66 -2 8 C-2.73323796 10.01508358 -2.73323796 10.01508358 -3 12 C-3.33 11.01 -3.66 10.02 -4 9 C-3.34 8.01 -2.68 7.02 -2 6 C-1.29835358 4.01200182 -0.62627128 2.01301483 0 0 Z " fill="#657F98" transform="translate(165,145)"/>
<path d="M0 0 C2.31 0 4.62 0 7 0 C3.67692308 3.93846154 3.67692308 3.93846154 0.25 4.25 C-0.4925 4.1675 -1.235 4.085 -2 4 C-2 3.34 -2 2.68 -2 2 C-1.34 2 -0.68 2 0 2 C0 1.34 0 0.68 0 0 Z " fill="#113C62" transform="translate(256,115)"/>
<path d="M0 0 C1.98 0.99 1.98 0.99 4 2 C3.34 3.98 2.68 5.96 2 8 C0.23537317 4.91190305 0 3.76687864 0 0 Z " fill="#2E5378" transform="translate(561,204)"/>
<path d="M0 0 C3.93846154 3.32307692 3.93846154 3.32307692 4.25 6.75 C4.1675 7.4925 4.085 8.235 4 9 C3.01 9.495 3.01 9.495 2 10 C1.34 6.7 0.68 3.4 0 0 Z " fill="#3B5B77" transform="translate(92,154)"/>
<path d="M0 0 C0.99 0.33 1.98 0.66 3 1 C3.33 2.65 3.66 4.3 4 6 C2.68 6 1.36 6 0 6 C0 4.02 0 2.04 0 0 Z " fill="#093053" transform="translate(651,246)"/>
<path d="M0 0 C0.99 0.33 1.98 0.66 3 1 C2.34 2.65 1.68 4.3 1 6 C-0.5 4.625 -0.5 4.625 -2 3 C-2 2.34 -2 1.68 -2 1 C-1.34 0.67 -0.68 0.34 0 0 Z " fill="#284F76" transform="translate(580,208)"/>
<path d="M0 0 C0.66 0 1.32 0 2 0 C2.33 0.66 2.66 1.32 3 2 C3.99 2.33 4.98 2.66 6 3 C6.33 4.98 6.66 6.96 7 9 C4.03595495 6.19195732 1.55500981 3.81684226 0 0 Z " fill="#758EA4" transform="translate(389,196)"/>
<path d="M0 0 C0 1.65 0 3.3 0 5 C-1.32 5 -2.64 5 -4 5 C-3.625 3.0625 -3.625 3.0625 -3 1 C-1 0 -1 0 0 0 Z " fill="#003261" transform="translate(620,166)"/>
<path d="M0 0 C2.97 0.495 2.97 0.495 6 1 C5.67 2.32 5.34 3.64 5 5 C5.66 5.33 6.32 5.66 7 6 C6.34 6.66 5.68 7.32 5 8 C1.125 2.25 1.125 2.25 0 0 Z " fill="#537290" transform="translate(249,151)"/>
<path d="M0 0 C2.52259061 1.97420135 2.9929808 2.96745642 3.6875 6.1875 C3.790625 7.115625 3.89375 8.04375 4 9 C3.34 7.68 2.68 6.36 2 5 C1.34 5 0.68 5 0 5 C0 3.35 0 1.7 0 0 Z " fill="#7390A6" transform="translate(146,144)"/>
<path d="M0 0 C1.0625 1.875 1.0625 1.875 2 4 C1.67 4.66 1.34 5.32 1 6 C0.34 6 -0.32 6 -1 6 C-1.33 6.99 -1.66 7.98 -2 9 C-3 6 -3 6 -1.5625 2.8125 C-1.046875 1.884375 -0.53125 0.95625 0 0 Z " fill="#446079" transform="translate(538,124)"/>
<path d="M0 0 C-5.2734375 3.22265625 -5.2734375 3.22265625 -7 4 C-7.66 3.67 -8.32 3.34 -9 3 C-9 2.34 -9 1.68 -9 1 C-3.375 -1.125 -3.375 -1.125 0 0 Z " fill="#082E55" transform="translate(195,123)"/>
</svg>
