<svg width="12" height="12" viewBox="0 0 12 12" fill="none" xmlns="http://www.w3.org/2000/svg">
<path d="M6 7.5C8.0025 7.5 12 8.505 12 10.5V11.25C12 11.6625 11.6625 12 11.25 12H10.2422C9.62428 10.2525 7.95912 9 6 9C4.04088 9 2.37572 10.2525 1.75781 12H0.75C0.3375 12 0 11.6625 0 11.25V10.5C0 8.505 3.9975 7.5 6 7.5ZM6 10.4004C7.16769 10.4004 8.1834 11.0464 8.71191 12H3.28809C3.8166 11.0464 4.83231 10.4004 6 10.4004ZM6 0C7.6575 0 9 1.3425 9 3C9 4.6575 7.6575 6 6 6C4.3425 6 3 4.6575 3 3C3 1.3425 4.3425 0 6 0Z" fill="white"/>
</svg>
