<svg width="12" height="12" viewBox="0 0 12 12" fill="none" xmlns="http://www.w3.org/2000/svg">
<path d="M10 4H8.5V2H1.5C0.95 2 0.5 2.45 0.5 3V8.5H1.5C1.5 9.33 2.17 10 3 10C3.83 10 4.5 9.33 4.5 8.5H7.5C7.5 9.33 8.17 10 9 10C9.83 10 10.5 9.33 10.5 8.5H11.5V6L10 4ZM9.75 4.75L10.73 6H8.5V4.75H9.75ZM3 9C2.725 9 2.5 8.775 2.5 8.5C2.5 8.225 2.725 8 3 8C3.275 8 3.5 8.225 3.5 8.5C3.5 8.775 3.275 9 3 9ZM4.11 7.5C3.835 7.195 3.445 7 3 7C2.555 7 2.165 7.195 1.89 7.5H1.5V3H7.5V7.5H4.11ZM9 9C8.725 9 8.5 8.775 8.5 8.5C8.5 8.225 8.725 8 9 8C9.275 8 9.5 8.225 9.5 8.5C9.5 8.775 9.275 9 9 9Z" fill="white"/>
</svg>
