<svg width="16" height="16" viewBox="0 0 16 16" fill="none" xmlns="http://www.w3.org/2000/svg">
<path d="M7.0481 2.47893L0.951909 5.52405C0.851556 5.57402 0.740104 5.59754 0.628113 5.59239C0.516123 5.58723 0.407305 5.55356 0.31197 5.49457C0.216636 5.43558 0.137942 5.35323 0.0833467 5.25531C0.0287515 5.15739 6.30725e-05 5.04716 0 4.93506V0H16V1.6351C16 1.74675 15.9716 1.85656 15.9175 1.95423C15.8633 2.05188 15.7853 2.13417 15.6906 2.19336L0.30937 11.8066C0.2147 11.8659 0.136637 11.9481 0.0825178 12.0458C0.0283993 12.1435 3.43459e-06 12.2532 0 12.3649V16H16V9.059C15.9999 8.94689 15.9713 8.83665 15.9166 8.73873C15.862 8.64082 15.7833 8.55846 15.6881 8.49948C15.5927 8.44049 15.4839 8.40682 15.3719 8.40166C15.2599 8.3965 15.1484 8.42003 15.0481 8.47001L8.9519 11.524C8.85156 11.574 8.7401 11.5976 8.62811 11.5924C8.51612 11.5872 8.4073 11.5536 8.31197 11.4946C8.21664 11.4355 8.13794 11.3532 8.08335 11.2553C8.02875 11.1574 8.00006 11.0472 8 10.9351V3.06494C7.99943 2.95309 7.97037 2.84322 7.91557 2.74571C7.86077 2.6482 7.78203 2.56625 7.68677 2.50761C7.59151 2.44897 7.48289 2.41557 7.37115 2.41054C7.2594 2.40553 7.14822 2.42906 7.0481 2.47893Z" fill="#FF6300"/>
</svg>
